<?xml version="1.0" encoding="UTF-8"?>
<svg version="1.1" xmlns="http://www.w3.org/2000/svg" width="500" height="500">
<path d="M0 0 C15.84 0 31.68 0 48 0 C48 16.83 48 33.66 48 51 C71.76 51 95.52 51 120 51 C120.8968714 53.6906142 121.27859126 55.88897096 121.5625 58.6875 C121.64628906 59.49574219 121.73007813 60.30398437 121.81640625 61.13671875 C121.87699219 61.75160156 121.93757812 62.36648437 122 63 C122.73863281 62.40832031 123.47726563 61.81664062 124.23828125 61.20703125 C138.58577497 50.03166448 151.64934377 45.70201963 169.86914062 47.70214844 C183.35763979 49.5875711 195.96440671 55.23966176 204.609375 66.00390625 C205.78451342 67.6378768 206.89949852 69.31485711 208 71 C208.72703125 70.12988281 208.72703125 70.12988281 209.46875 69.2421875 C219.48816422 57.56571632 232.75975473 48.50039332 248.5 47.25 C264.86149405 46.32095617 280.33837005 50.32582166 293 61 C302.93569756 69.98295944 305.99227212 82.02869758 307 95 C307.32501832 102.30502024 307.23412824 109.61959239 307.1953125 116.9296875 C307.19157428 119.01718001 307.18873114 121.10467429 307.18673706 123.19216919 C307.17916422 128.64020786 307.15957154 134.08813693 307.1373291 139.53613281 C307.11673257 145.11391722 307.10770605 150.69171963 307.09765625 156.26953125 C307.07631863 167.17973519 307.042261 178.08985842 307 189 C300.18238106 189.0252689 293.36477411 189.04283244 286.54711914 189.05493164 C284.22582549 189.05997333 281.90453503 189.06680651 279.58325195 189.07543945 C276.25471205 189.08751225 272.92621398 189.09322979 269.59765625 189.09765625 C268.03048607 189.10539818 268.03048607 189.10539818 266.43165588 189.11329651 C265.47073532 189.11337204 264.50981476 189.11344757 263.51977539 189.11352539 C262.66928116 189.115746 261.81878693 189.11796661 260.94252014 189.12025452 C259 189 259 189 258 188 C257.8961686 185.43101454 257.85638461 182.88804103 257.8581543 180.31835938 C257.85294266 179.1108754 257.85294266 179.1108754 257.84762573 177.8789978 C257.84025325 176.12363888 257.83491586 174.36827053 257.83133507 172.61289978 C257.82418203 169.82946186 257.80852124 167.04620152 257.78999329 164.26281738 C257.73749076 156.34613586 257.68960629 148.4295469 257.67407227 140.51269531 C257.66395508 135.6743407 257.63452771 130.83642571 257.59275246 125.99824524 C257.5804818 124.15801835 257.57531397 122.31772921 257.57755089 120.47746277 C257.63788239 105.31635897 257.63788239 105.31635897 250.75 92.125 C244.41318393 87.2283694 237.89307546 86.1201986 230 87 C223.73441554 88.13313762 220.71616907 90.90153333 217.12890625 96.0625 C214.63208023 100.34771005 214.83563548 104.50751777 214.81054688 109.31103516 C214.80225357 110.15842758 214.79396027 111.00582001 214.78541565 111.87889099 C214.76801889 113.71879842 214.75285105 115.55872796 214.73963928 117.3986702 C214.71862707 120.30607163 214.69160507 123.21336139 214.66296387 126.12069702 C214.59310132 133.33917708 214.53363719 140.55773616 214.47393799 147.77630615 C214.42309703 153.87828729 214.36831045 159.98020742 214.30812073 166.08210373 C214.2814555 168.95442671 214.26069875 171.82675512 214.2401123 174.6991272 C214.2235178 176.44867223 214.20664672 178.19821466 214.18945312 179.94775391 C214.1831765 181.15556267 214.1831765 181.15556267 214.17677307 182.38777161 C214.11384829 187.88615171 214.11384829 187.88615171 213 189 C211.49581261 189.09311889 209.98728644 189.11746028 208.48022461 189.11352539 C207.03884377 189.11341209 207.03884377 189.11341209 205.56834412 189.11329651 C204.523564 189.10813522 203.47878387 189.10297394 202.40234375 189.09765625 C200.80635094 189.09553383 200.80635094 189.09553383 199.17811584 189.09336853 C195.76454917 189.08775064 192.351047 189.07519511 188.9375 189.0625 C186.62955824 189.05748731 184.32161545 189.052924 182.01367188 189.04882812 C176.34242574 189.0377754 170.67121747 189.02101987 165 189 C164.99453156 187.43264854 164.99453156 187.43264854 164.98895264 185.83363342 C164.95192907 175.96171969 164.89407608 166.09011576 164.81609726 156.21843815 C164.77667445 151.14390375 164.74446048 146.06954153 164.72900391 140.99487305 C164.71380311 136.09280898 164.67929685 131.19121845 164.63169098 126.28936577 C164.61691244 124.42402715 164.60896102 122.55862092 164.60811615 120.69322395 C164.66279315 105.4177871 164.66279315 105.4177871 157.75 92.125 C151.44662307 87.25420874 144.86494034 86.06186169 137 87 C130.4250232 89.04794359 126.56348031 92.1522323 123.25 98.1875 C119.8452776 107.18908442 120.87571619 117.62975426 120.92483521 127.10162544 C120.93772646 129.61047841 120.94414523 132.11927789 120.94897461 134.62815857 C120.96032334 139.9396301 120.97961426 145.25105651 121 150.5625 C121.02359935 156.75122174 121.04394572 162.93991945 121.05593872 169.12867546 C121.06243574 171.60441776 121.07493399 174.08008431 121.08764648 176.55580139 C121.09127576 178.06006809 121.09462789 179.56433549 121.09765625 181.06860352 C121.10289307 182.38635269 121.10812988 183.70410187 121.11352539 185.06178284 C121 188 121 188 120 189 C118.50917211 189.10694116 117.0134131 189.1462091 115.51879883 189.15771484 C114.56302444 189.16797699 113.60725006 189.17823914 112.62251282 189.18881226 C111.5779039 189.19611359 110.53329498 189.20341492 109.45703125 189.2109375 C107.24543584 189.23904788 105.03384741 189.26771251 102.82226562 189.296875 C99.33602406 189.33783511 95.84990715 189.37471402 92.36352539 189.40136719 C75.36862225 189.48373204 75.36862225 189.48373204 58.6784668 192.32763672 C46.50572093 195.38330549 32.1382191 192.85791461 21.0625 187.3125 C10.60127419 181.02349328 5.18011998 171.21459954 2.085495 159.55418396 C0.2658831 150.75005746 -0.40607352 142.43150284 -0.29296875 133.41015625 C-0.28872391 132.09961777 -0.28447906 130.78907928 -0.28010559 129.43882751 C-0.26883453 126.01113625 -0.23952882 122.58384706 -0.20599365 119.15631104 C-0.17490184 115.63616368 -0.16151812 112.11594919 -0.14648438 108.59570312 C-0.11463499 101.73029031 -0.06202062 94.86520604 0 88 C-6.6 88 -13.2 88 -20 88 C-20 75.79 -20 63.58 -20 51 C-13.4 51 -6.8 51 0 51 C0 34.17 0 17.34 0 0 Z M48 88 C47.95397046 94.68962713 47.91417949 101.3786998 47.89013672 108.06835938 C47.88010867 110.34181587 47.86648289 112.61525956 47.84912109 114.88867188 C47.82473216 118.16539682 47.81348466 121.44195051 47.8046875 124.71875 C47.79436493 125.72740112 47.78404236 126.73605225 47.77340698 127.77526855 C47.77231782 134.69975895 48.08573438 140.89756951 51.8125 146.9375 C54.44334988 149.4180156 55.38330415 150 59 150 C62.80612326 149.00882207 66.47978503 147.76010748 70 146 C70.66 146.66 71.32 147.32 72 148 C72 128.2 72 108.4 72 88 C64.08 88 56.16 88 48 88 Z " fill="#FD7420" transform="translate(68,134)"/>
<path d="M0 0 C6.93001001 4.66329464 11.30835822 10.65006399 14.3125 18.375 C16.11608958 27.88483594 14.90106795 35.62765195 10.3125 44.125 C4.39955636 51.47622722 -2.40330585 56.82967144 -12 58 C-20.78161235 58.59536355 -29.10286 56.6976374 -36 51 C-43.64766634 43.70462539 -47.02936922 37.51911912 -47.375 26.9375 C-47.11801174 17.7443291 -43.75418865 11.26151144 -37.6875 4.375 C-26.61738236 -5.40789466 -13.05390197 -6.71513318 0 0 Z " fill="#FC7421" transform="translate(425,269)"/>
<path d="M0 0 C0.66 0 1.32 0 2 0 C2 26.73 2 53.46 2 81 C17.18 81 32.36 81 48 81 C48 54.6 48 28.2 48 1 C48.33 1 48.66 1 49 1 C49.02312343 11.54381312 49.04091509 22.08762025 49.05181217 32.63145351 C49.057041 37.52685374 49.06413864 42.42223668 49.07543945 47.31762695 C49.08626834 52.03787978 49.09227684 56.75811592 49.09487724 61.4783802 C49.09673149 63.28338954 49.10035209 65.08839792 49.10573006 66.89340019 C49.11294052 69.41259644 49.11399094 71.9317229 49.11352539 74.45092773 C49.11712067 75.20474228 49.12071594 75.95855682 49.12442017 76.73521423 C49.11405216 81.88594784 49.11405216 81.88594784 48 83 C46.49581261 83.09311889 44.98728644 83.11746028 43.48022461 83.11352539 C42.50581421 83.11340454 41.53140381 83.11328369 40.52746582 83.11315918 C39.49617554 83.10804321 38.46488525 83.10292725 37.40234375 83.09765625 C35.98846375 83.09614563 35.98846375 83.09614563 34.54602051 83.09460449 C31.00983471 83.08935477 27.47366619 83.07539364 23.9375 83.0625 C16.038125 83.041875 8.13875 83.02125 0 83 C0 55.61 0 28.22 0 0 Z " fill="#E3793F" transform="translate(233,240)"/>
<path d="M0 0 C-2 5 -2 5 -3.0625 7.4375 C-4.10139486 10.27714594 -4.58292134 13.01093625 -5 16 C-5.66 16 -6.32 16 -7 16 C-7.33 15.01 -7.66 14.02 -8 13 C-8.66 12.67 -9.32 12.34 -10 12 C-9.65500945 3.77197543 -9.65500945 3.77197543 -7.25 0.9375 C-4.66551808 -0.13936747 -2.77405951 -0.23117163 0 0 Z " fill="#FA7422" transform="translate(194,226)"/>
<path d="M0 0 C-0.66 1.65 -1.32 3.3 -2 5 C-2.66 5 -3.32 5 -4 5 C-4 5.66 -4 6.32 -4 7 C-5.65 6.67 -7.3 6.34 -9 6 C-9 6.99 -9 7.98 -9 9 C-9.66 9 -10.32 9 -11 9 C-11 8.01 -11 7.02 -11 6 C-12.65 6.33 -14.3 6.66 -16 7 C-13.75380873 4.49546085 -11.63373662 3.16425844 -8.5625 1.8125 C-7.41974609 1.29623047 -7.41974609 1.29623047 -6.25390625 0.76953125 C-4 0 -4 0 0 0 Z " fill="#F6772A" transform="translate(217,183)"/>
<path d="M0 0 C1.3899408 2.7798816 1.18488204 4.9186326 1 8 C0.67 8.639375 0.34 9.27875 0 9.9375 C-1.82945666 13.71075435 -1.47000294 17.42471544 -0.2890625 21.3828125 C0.26304757 22.95809904 0.83859594 24.52544108 1.44140625 26.08203125 C2 28 2 28 1 30 C-3.09707826 22.16211116 -4.62868391 14.21172466 -2.328125 5.4375 C-1.63006288 3.59356231 -0.82623533 1.79017655 0 0 Z " fill="#E07E3E" transform="translate(381,282)"/>
<path d="M0 0 C0.78375 0.04125 1.5675 0.0825 2.375 0.125 C0.375 5.125 0.375 5.125 -0.6875 7.5625 C-1.72639486 10.40214594 -2.20792134 13.13593625 -2.625 16.125 C-2.955 16.125 -3.285 16.125 -3.625 16.125 C-3.295 11.835 -2.965 7.545 -2.625 3.125 C-3.285 2.795 -3.945 2.465 -4.625 2.125 C-2.625 0.125 -2.625 0.125 0 0 Z " fill="#EF793C" transform="translate(191.625,225.875)"/>
<path d="M0 0 C3.65316671 1.24976756 4.78065836 1.67098753 7 5 C5.35 6.32 3.7 7.64 2 9 C-0.29013653 5.5647952 -0.17842973 4.014669 0 0 Z " fill="#F47729" transform="translate(354,191)"/>
<path d="M0 0 C0.66 0.33 1.32 0.66 2 1 C0.875 3.4375 0.875 3.4375 -1 6 C-4.1875 6.8125 -4.1875 6.8125 -7 7 C-7 7.66 -7 8.32 -7 9 C-8.65 9.66 -10.3 10.32 -12 11 C-8.68542782 6.30435607 -4.63720719 3.27530896 0 0 Z " fill="#EF7A38" transform="translate(292,190)"/>
<path d="M0 0 C2 1 4 2 6 3 C5.34 4.32 4.68 5.64 4 7 C2 7 2 7 0.3125 5.75 C-1 4 -1 4 -0.6875 1.8125 C-0.460625 1.214375 -0.23375 0.61625 0 0 Z " fill="#F7782C" transform="translate(193,218)"/>
<path d="M0 0 C0.99 0 1.98 0 3 0 C3.53229326 1.26607607 4.05044544 2.53810412 4.5625 3.8125 C4.85253906 4.52019531 5.14257812 5.22789062 5.44140625 5.95703125 C6 8 6 8 5 11 C4.16151196 9.54462432 3.32936066 8.08559627 2.5 6.625 C1.80390625 5.40683594 1.80390625 5.40683594 1.09375 4.1640625 C0 2 0 2 0 0 Z " fill="#F07932" transform="translate(73,300)"/>
<path d="M0 0 C0.66 0.33 1.32 0.66 2 1 C1.525625 1.86625 1.05125 2.7325 0.5625 3.625 C-0.93234895 6.85387374 -1.58218313 9.49033826 -2 13 C-2.33 13 -2.66 13 -3 13 C-3.33 9.37 -3.66 5.74 -4 2 C-2.68 1.34 -1.36 0.68 0 0 Z " fill="#EF7A36" transform="translate(284,228)"/>
<path d="M0 0 C0.33 0.99 0.66 1.98 1 3 C0.34 3 -0.32 3 -1 3 C-1.33 3.66 -1.66 4.32 -2 5 C-2.99 5.495 -2.99 5.495 -4 6 C-4 5.34 -4 4.68 -4 4 C-5.65 4.33 -7.3 4.66 -9 5 C-6.45523312 2.20075644 -3.92372883 0 0 0 Z " fill="#F47A2F" transform="translate(303,185)"/>
<path d="M0 0 C1.40457737 2.80915474 1.24895157 4.88810534 1 8 C-0.5 10.375 -0.5 10.375 -2 12 C-2.28571429 3.42857143 -2.28571429 3.42857143 0 0 Z " fill="#EB7730" transform="translate(381,282)"/>
<path d="M0 0 C3.48331435 3.01887244 4.79157144 5.56909529 6 10 C4.125 9.5 4.125 9.5 2 8 C1.01505446 5.34822355 0.54087618 2.79452693 0 0 Z " fill="#E97C39" transform="translate(364,199)"/>
<path d="M0 0 C1.98 0.66 3.96 1.32 6 2 C3.36095629 3.41377341 0.92879371 4.37240135 -2 5 C-1.34 3.35 -0.68 1.7 0 0 Z " fill="#F57830" transform="translate(292,218)"/>
<path d="M0 0 C1.17539996 0.92652701 2.34010577 1.86663387 3.5 2.8125 C4.1496875 3.33457031 4.799375 3.85664063 5.46875 4.39453125 C7 6 7 6 7 9 C0.70535714 4.17857143 0.70535714 4.17857143 0 0 Z " fill="#DF7D40" transform="translate(427,271)"/>
<path d="M0 0 C2.31 0 4.62 0 7 0 C7.33 1.65 7.66 3.3 8 5 C5.36 3.68 2.72 2.36 0 1 C0 0.67 0 0.34 0 0 Z " fill="#E77D38" transform="translate(312,221)"/>
<path d="M0 0 C1.32 0.33 2.64 0.66 4 1 C4.33 3.31 4.66 5.62 5 8 C2.74754119 5.31158141 1.11786042 3.35358125 0 0 Z " fill="#EB7B39" transform="translate(320,226)"/>
</svg>
