<?xml version="1.0" encoding="UTF-8"?>
<svg xmlns="http://www.w3.org/2000/svg" xmlns:xlink="http://www.w3.org/1999/xlink" version="1.1" id="Layer_1" x="0px" y="0px" viewBox="0 0 171.57 82.21" style="enable-background:new 0 0 171.57 82.21;" xml:space="preserve">
<style type="text/css">
	.st0{fill:#016342;}
</style>
<g>
	<g>
		<path class="st0" d="M129.02,34.57c0.29-0.1,0.57-0.06,0.84-0.06c5.98,0,11.97,0,17.95,0c1.82,0,3.64,0.01,5.46,0    c0.35,0,0.65,0.07,0.95,0.24c4.05,2.26,8.11,4.51,12.17,6.76c0.16,0.09,0.32,0.19,0.43,0.26c0.05,0.07,0.06,0.08,0.07,0.1    c0.01,0.02,0.01,0.04,0.01,0.06c0.01,5.52,0.01,11.04,0.02,16.56c0,0.19-0.01,0.38-0.01,0.56c0,0.04-0.02,0.08-0.04,0.16    c-0.1,0.02-0.21,0.07-0.33,0.08c-1.82,0.01-3.64,0-5.46,0.01c-0.19,0-0.37-0.03-0.54-0.13c-1.04-0.59-2.08-1.16-3.12-1.75    c-0.05-0.03-0.09-0.08-0.14-0.11c-0.08-0.53-0.08-6.36,0-6.93c0.14,0.04,0.28,0.07,0.4,0.13c0.84,0.46,1.68,0.93,2.52,1.4    c0.14,0.08,0.29,0.14,0.42,0.21c0.05-0.03,0.07-0.04,0.08-0.05c0.01-0.02,0.02-0.04,0.02-0.06c0-2.15,0-4.31,0-6.48    c-0.11-0.08-0.22-0.18-0.34-0.25c-2.04-1.14-4.09-2.28-6.14-3.42c-0.11-0.06-0.22-0.1-0.38-0.17c-0.03,0.14-0.06,0.23-0.06,0.33    c-0.01,0.21,0,0.42,0,0.63c0,7.42,0,14.85,0,22.27c0,0.29,0.03,0.58-0.06,0.85c-0.25,0.12-0.49,0.07-0.71,0.07    c-1.59,0-3.18-0.01-4.77,0.01c-0.44,0.01-0.81-0.1-1.19-0.31c-4.44-2.47-8.88-4.93-13.33-7.4c-1.39-0.77-2.78-1.54-4.17-2.32    c-0.2-0.11-0.39-0.23-0.57-0.33C128.93,54.87,128.94,35.14,129.02,34.57z M147.59,40.76c-0.28-0.15-0.56-0.09-0.82-0.1    c-3.58,0-7.15,0-10.73,0c-0.17,0-0.34-0.01-0.5,0.01c-0.12,0.01-0.23,0.05-0.34,0.07c-0.08,0.53-0.09,10.43-0.02,11.08    c0.19,0.11,0.39,0.22,0.59,0.33c2.25,1.24,4.5,2.48,6.75,3.72c1.54,0.85,3.07,1.7,4.61,2.54c0.13,0.07,0.26,0.22,0.45,0.13    c0.08-0.59,0.13-14.94,0.05-17.43C147.63,41,147.61,40.88,147.59,40.76z"></path>
		<path class="st0" d="M77.91,25.64c-0.16-0.04-0.32-0.07-0.48-0.12c-1.69-0.55-3.37-1.11-5.06-1.67c-0.06-0.02-0.12-0.05-0.18-0.06    c-0.29-0.05-0.36-0.25-0.35-0.5c0.01-0.29,0-0.59,0-0.88c0-0.23,0-0.46,0-0.7c-0.61-0.38-1.25-0.63-1.86-0.94    c-0.6-0.3-1.21-0.58-1.81-0.87c-0.62-0.3-1.24-0.6-1.87-0.89c-0.6-0.28-1.18-0.61-1.85-0.85c-0.02,0.14-0.05,0.24-0.05,0.34    c-0.05,1.52-0.02,4.75,0.06,5.31c1.61,0.81,3.29,1.56,4.9,2.38c0.09,0.54,0.09,6.11,0.02,6.68c-0.21,0.1-0.36-0.05-0.52-0.12    c-1.49-0.71-2.98-1.43-4.47-2.14c-1.85-0.89-3.7-1.77-5.54-2.66c-0.2-0.1-0.4-0.21-0.58-0.3c-0.07-0.77-0.06-15.82,0.02-16.32    c0.11-0.02,0.23-0.07,0.34-0.07c1.8-0.01,3.6,0,5.4-0.01c0.31,0,0.57,0.12,0.83,0.24c2.09,1,4.18,2.01,6.28,3.01    c0.2,0.1,0.39,0.24,0.66,0.23c0.09-0.58,0.02-1.14,0.04-1.7c0.02-0.56-0.05-1.12,0.06-1.71c0.15-0.02,0.29-0.07,0.43-0.07    c1.76,0,3.52,0,5.27-0.01c0.33,0,0.61,0.12,0.89,0.25c1.75,0.85,3.5,1.7,5.25,2.55c0.2,0.1,0.41,0.18,0.59,0.26    c0.06-0.03,0.09-0.04,0.1-0.05c0.01-0.01,0.02-0.04,0.02-0.06c0.01-1.99,0.01-3.97,0.02-5.96c0-0.1-0.02-0.2-0.03-0.34    c-0.13-0.02-0.24-0.06-0.36-0.06c-0.21-0.01-0.42,0-0.63,0c-8.1,0-16.2,0-24.3,0c-0.27,0-0.54-0.01-0.77-0.01    c-0.22-0.21-0.16-0.43-0.16-0.63c-0.01-1.42,0-2.84,0-4.27c0-0.27,0-0.54,0-0.82c0-0.12,0.03-0.24,0.04-0.39    c0.14-0.02,0.26-0.04,0.38-0.05c0.17-0.01,0.33,0,0.5,0c10.19,0,20.39,0,30.58,0c0.27,0,0.54,0.01,0.83,0.01    c0.04,0.15,0.08,0.27,0.09,0.39c0.01,0.19,0.01,0.38,0.01,0.56c0,9.81,0,19.62,0,29.43c0,0.29,0.06,0.58-0.08,0.88    c-0.12,0.02-0.24,0.05-0.36,0.05c-1.67,0.06-5.13,0.02-5.65-0.06c-0.15-0.2-0.08-0.44-0.08-0.66c-0.01-1.9,0-3.81,0-5.71    c0-1.55,0-3.1,0-4.64c0-0.21,0-0.41,0-0.65c-0.7-0.41-1.43-0.72-2.14-1.07c-0.69-0.35-1.39-0.68-2.09-1.01    c-0.71-0.34-1.41-0.71-2.16-1.02c-0.11,0.24-0.08,0.45-0.08,0.65c0,2.05,0,4.1,0,6.15C78.01,25.16,78.07,25.4,77.91,25.64z"></path>
		<path class="st0" d="M101.72,34.58c0.02,0.07,0.05,0.15,0.06,0.23c0.01,0.19,0.01,0.38,0.01,0.56c0,9.85,0,19.7,0,29.55    c0,0.27-0.02,0.54-0.02,0.84c-0.15,0.03-0.26,0.06-0.38,0.06c-0.17,0.01-0.33,0-0.5,0c-8.52,0-17.04,0-25.55,0    c-0.27,0-0.54-0.01-0.84-0.01c-0.03-0.15-0.07-0.26-0.08-0.38c-0.01-0.15-0.01-0.29-0.01-0.44c0-3.87,0-7.74,0-11.61    c0-0.23,0-0.46,0-0.71c0.22-0.14,0.43-0.27,0.64-0.4c3.13-1.81,6.26-3.62,9.4-5.43c0.18-0.1,0.35-0.21,0.53-0.32    c0-1.92,0-3.82,0-5.75c-0.12-0.04-0.24-0.1-0.35-0.1c-1.23-0.01-2.47,0-3.7,0c-0.08,0-0.16,0.03-0.24,0.05    c-0.16,0.21-0.12,0.45-0.12,0.67c-0.01,1.17,0,2.34,0,3.51c0,0.23,0.02,0.45-0.07,0.7c-0.1,0-0.18,0.01-0.25-0.01    c-1.85-0.61-3.69-1.22-5.54-1.83c-0.08-0.03-0.15-0.07-0.25-0.11c-0.02-0.14-0.05-0.28-0.05-0.43c0-2.72,0-5.44,0-8.16    c0-0.16,0.03-0.32,0.04-0.48c0.09-0.03,0.15-0.06,0.21-0.06c5.4,0,10.8,0,16.2,0c0.08,0,0.16,0.03,0.28,0.05    c0.02,0.19,0.04,0.37,0.04,0.55c0,1.15,0,2.3,0,3.45c0,3.58,0,7.15,0,10.73c0,0.25,0,0.5,0,0.78c-1.76,1.04-3.52,2.04-5.28,3.06    c-1.75,1.02-3.51,2.03-5.25,3.03c-0.12,0.54-0.12,2.86,0,3.42c0.11,0.02,0.22,0.05,0.34,0.06c0.15,0.01,0.29,0.01,0.44,0.01    c4.46,0,8.92,0,13.37,0c0.25,0,0.5,0.04,0.76-0.08c0.02-0.09,0.05-0.19,0.06-0.29c0.01-0.21,0.01-0.42,0.01-0.63    c0-7.76,0-15.52,0-23.28c0-0.27-0.03-0.54,0.03-0.76c0.05-0.05,0.07-0.07,0.08-0.08c0.02-0.01,0.04-0.02,0.06-0.02    c1.76-0.01,3.51-0.02,5.27-0.02c0.17,0,0.33,0.01,0.5,0.02C101.62,34.52,101.66,34.55,101.72,34.58z"></path>
		<path class="st0" d="M3.7,27.03C3.65,26.58,3.6,2.61,3.65,2C3.66,1.9,3.7,1.8,3.72,1.71c0.49-0.08,5.33-0.09,6.01-0.01    C9.76,1.8,9.8,1.91,9.81,2.03c0.01,0.21,0.01,0.42,0.01,0.63c0,6.3,0,12.59,0,18.89c0,0.25,0,0.5,0,0.73    C9.9,22.33,9.95,22.38,10,22.4c4.8,1.36,9.61,2.73,14.41,4.08c0.12,0.03,0.25,0.04,0.39,0.06c0.02-0.12,0.06-0.22,0.06-0.32    c0-1.65,0.01-3.3,0-4.92c-0.22-0.2-0.46-0.22-0.67-0.28c-3.04-0.85-6.08-1.7-9.12-2.55c-0.26-0.07-0.51-0.16-0.75-0.24    c-0.07-0.55-0.08-15.91-0.01-16.51c0.1-0.03,0.22-0.07,0.34-0.08c0.15-0.01,0.29,0,0.44,0c5.04,0,10.09,0,15.13,0    c0.25,0,0.5-0.03,0.73,0.05c0.03,0.08,0.07,0.14,0.07,0.2c0,3.72,0,7.45,0,11.17c0,0.06-0.04,0.12-0.06,0.19    c-0.11-0.01-0.21,0-0.31-0.03c-1.9-0.63-3.81-1.26-5.74-1.9c-0.02-0.21-0.05-0.39-0.05-0.58c-0.01-0.71,0-1.42,0-2.13    c0-0.23-0.01-0.46-0.02-0.7c-0.1-0.04-0.17-0.09-0.25-0.09c-1.3-0.01-2.6,0-3.89,0c-0.06,0-0.12,0.03-0.21,0.06    c-0.02,0.09-0.05,0.19-0.05,0.29c0,1.8,0,3.6,0,5.4c0,0.06,0.02,0.12,0.04,0.22c0.14,0.05,0.29,0.12,0.44,0.16    c3.12,0.88,6.24,1.75,9.36,2.62c0.22,0.06,0.44,0.13,0.68,0.2c0.02,0.15,0.05,0.29,0.06,0.43c0.01,0.12,0,0.25,0,0.38    c0,4.85,0,9.7,0,14.56c0,0.25-0.01,0.49-0.02,0.77c-0.16,0.02-0.27,0.06-0.39,0.06c-1.82,0-3.64,0.01-5.46,0    c-0.25,0-0.5-0.05-0.74-0.12c-4.31-1.2-8.62-2.4-12.92-3.6c-2.44-0.68-4.87-1.36-7.3-2.05C4.04,27.15,3.88,27.09,3.7,27.03z"></path>
		<path class="st0" d="M117.87,28.39c0.2-0.12,0.38-0.23,0.56-0.33c4.29-2.39,8.59-4.77,12.88-7.16c0.36-0.2,0.72-0.29,1.13-0.29    c6.53,0.01,13.06,0,19.59,0.01c0.22,0,0.46-0.05,0.68,0.07c0.14,0.23,0.09,0.49,0.09,0.73c0,1.61,0,3.22,0,4.83c0,1,0,2.01,0,3.01    c0,0.22,0.05,0.46-0.11,0.69c-0.07,0.02-0.15,0.05-0.23,0.05c-1.84,0-3.68,0-5.52,0c-0.08,0-0.16-0.04-0.28-0.07    c-0.01-0.19-0.03-0.37-0.04-0.55c0-0.67,0-1.34,0-2.01c0-0.18,0.04-0.38-0.13-0.58c-0.17,0-0.38,0-0.59,0c-3.95,0-7.91,0-11.86,0    c-0.37,0-0.69,0.07-1.01,0.26c-2.81,1.57-5.63,3.13-8.44,4.69c-0.16,0.09-0.32,0.19-0.5,0.3c-0.02,0.14-0.05,0.28-0.06,0.42    c-0.01,0.23,0,0.46,0,0.69c0,10.56,0,21.12,0,31.68c0,0.31-0.02,0.62-0.03,0.95c-0.16,0.02-0.28,0.05-0.4,0.05    c-2.08,0.06-5.1,0.03-5.68-0.07c-0.01-0.1-0.04-0.22-0.05-0.34c-0.01-0.17,0-0.33,0-0.5c0-11.9,0-23.79,0-35.69    C117.86,28.95,117.86,28.68,117.87,28.39z"></path>
		<path class="st0" d="M53.27,37.19c0.62,0.43,4.28,2.45,4.71,2.61c0.14-0.08,0.1-0.21,0.1-0.33c0-1.11,0-2.22,0-3.32    c0-0.2,0.02-0.41,0.03-0.64c0.12,0.01,0.21-0.01,0.28,0.02c1.92,0.63,3.85,1.26,5.76,1.89c0.13,0.28,0.09,0.53,0.09,0.78    c0,2.7,0,5.39,0,8.09c0,0.17,0,0.33-0.01,0.5c-0.01,0.1-0.04,0.2-0.07,0.33c-0.17,0.01-0.34,0.03-0.5,0.03    c-1.63,0-3.26,0-4.9,0.01c-0.3,0-0.57-0.07-0.83-0.21c-3.46-1.95-6.93-3.89-10.4-5.83c-0.09-0.05-0.19-0.09-0.27-0.16    c-0.07-0.07-0.14-0.17-0.15-0.26c-0.03-0.18-0.02-0.38-0.02-0.56c0-12.55,0-25.09,0-37.64c0-0.25-0.03-0.5,0.07-0.77    c0.09-0.02,0.19-0.05,0.29-0.05c1.82,0,3.64,0,5.46,0c0.08,0,0.16,0.02,0.28,0.04c0.02,0.12,0.06,0.24,0.06,0.36    c0.01,0.23,0,0.46,0,0.69c0,11.21,0,22.42,0,33.62C53.27,36.63,53.27,36.9,53.27,37.19z"></path>
		<path class="st0" d="M42.13,1.72c0.02,0.16,0.04,0.28,0.04,0.4c0,10.2-0.01,20.4-0.01,30.6c0,0.06-0.04,0.11-0.07,0.2    c-0.12,0.02-0.24,0.05-0.36,0.05c-1.72,0.06-5.13,0.02-5.67-0.07c-0.02-0.11-0.05-0.22-0.06-0.34c-0.01-0.15,0-0.29,0-0.44    c0-9.87,0-19.73,0-29.6c0-0.27-0.03-0.54,0.06-0.83c0.13-0.02,0.25-0.04,0.37-0.04C38.41,1.59,41.55,1.62,42.13,1.72z"></path>
		<path class="st0" d="M95.65,1.71c0.55-0.09,3.75-0.12,5.67-0.06c0.12,0,0.24,0.03,0.38,0.04c0.02,0.13,0.04,0.23,0.05,0.33    c0.06,1.35,0.02,30.35-0.05,30.88c-0.1,0.02-0.22,0.07-0.34,0.07c-1.78,0-3.56,0.01-5.33,0c-0.12,0-0.24-0.03-0.38-0.05    c-0.02-0.12-0.06-0.22-0.06-0.32c-0.01-0.19-0.01-0.38-0.01-0.56c0-9.82,0-19.65,0-29.47C95.58,2.27,95.55,1.98,95.65,1.71z"></path>
		<path class="st0" d="M112.89,65.76c-0.16,0.03-0.24,0.05-0.32,0.05c-1.86,0-3.72,0-5.59,0c-0.06,0-0.12-0.03-0.21-0.06    c-0.02-0.11-0.05-0.23-0.05-0.35c-0.01-0.19,0-0.38,0-0.56c0-9.78,0-19.57,0-29.35c0-0.29,0.01-0.58,0.02-0.9    c0.15-0.03,0.27-0.08,0.38-0.08c1.8,0,3.6,0,5.4,0c0.1,0,0.2,0.03,0.33,0.05c0.02,0.14,0.05,0.26,0.05,0.37    c0.01,0.17,0,0.33,0,0.5c0,9.83,0,19.65,0,29.48C112.91,65.18,112.9,65.45,112.89,65.76z"></path>
	</g>
	<g>
		<path class="st0" d="M74.65,81.1V70.88h3.08c0.82,0,1.62,0.05,2.17,0.75c0.44,0.56,0.5,1.14,0.5,1.84c0,0.89-0.19,1.76-1.23,2.14    v0.03c1.08,0.15,1.48,1.05,1.48,2.37c0,0.42-0.03,0.84-0.14,1.25c-0.41,1.29-1.14,1.84-2.51,1.84H74.65z M76.91,75.01    c0.46,0,1.06,0.03,1.36-0.35c0.18-0.26,0.2-0.61,0.2-1.1c0-0.76-0.16-1.14-1.04-1.17h-0.89v2.63H76.91z M76.97,79.6    c0.39,0,0.8,0.04,1.14-0.11c0.52-0.23,0.59-0.9,0.59-1.42c0-1.1-0.22-1.57-1.4-1.57h-0.74v3.09H76.97z"></path>
		<path class="st0" d="M84.66,73.56c0.2,0.5,0.37,1.02,0.45,1.57h0.03c0.14-0.79,0.4-1.36,0.63-1.93l0.91-2.32h2.08l-2.7,5.87v4.35    h-1.91v-4.35l-2.66-5.87h2.08L84.66,73.56z"></path>
		<path class="st0" d="M99.81,76.16c0.19,1.02,0.29,2.33,0.42,3.64h0.03c0.03-0.25,0.04-0.49,0.07-0.74    c0.07-0.87,0.15-1.74,0.29-2.62l0.76-5.57h1.98l-1.89,10.22h-2.29l-0.76-4.03c-0.2-1.08-0.27-2.17-0.41-3.26h-0.03    c-0.14,1.09-0.2,2.18-0.41,3.26l-0.68,4.03h-2.29l-1.95-10.22h1.98l0.86,5.57c0.14,0.87,0.22,1.74,0.29,2.62    c0.03,0.25,0.04,0.49,0.05,0.74h0.03c0.15-1.31,0.25-2.62,0.44-3.64l0.93-5.29h1.58L99.81,76.16z"></path>
		<path class="st0" d="M104.54,81.1V70.88h5.37v1.5h-3.46v2.57h3.19v1.5h-3.19v3.15h3.46v1.5H104.54z"></path>
		<path class="st0" d="M111.4,81.1V70.88h1.91v8.72h3.54v1.5H111.4z"></path>
		<path class="st0" d="M118.03,81.1V70.88h1.91v8.72h3.54v1.5H118.03z"></path>
		<path class="st0" d="M128.78,73.99c0.01-0.91-0.07-1.81-1.12-1.81c-0.64,0-1.05,0.26-1.05,0.95c0,0.78,0.49,1.08,1.09,1.46    c0.63,0.39,1.78,1.16,2.32,1.68c0.65,0.64,0.86,1.25,0.86,2.14c0,1.93-1.28,2.94-3.15,2.94c-2.29,0-3.11-1.28-3.11-3.11v-0.75    h1.91v0.6c-0.04,0.99,0.26,1.72,1.2,1.72c0.8,0,1.19-0.42,1.19-1.2c0-0.6-0.27-1.01-0.76-1.35c-0.99-0.78-2.23-1.33-3.01-2.36    c-0.31-0.46-0.49-1.02-0.49-1.57c0-1.74,0.98-2.7,3-2.7c3.04,0,2.96,2.34,2.97,3.35H128.78z"></path>
		<path class="st0" d="M132.46,81.1V70.88h3.9c1.83,0,2.38,1.47,2.38,2.9c0,0.87-0.23,1.85-0.95,2.42c-0.6,0.48-1.4,0.63-2.14,0.61    h-1.28v4.28H132.46z M134.37,75.32h1.02c0.83,0,1.39-0.35,1.39-1.59c0-1.17-0.46-1.35-1.54-1.35h-0.87V75.32z"></path>
		<path class="st0" d="M141.91,76.7v4.4h-1.91V70.88h3.61c1.65,0,2.9,0.57,2.9,2.45c0,1.12-0.29,2.29-1.57,2.47v0.03    c1.13,0.15,1.47,0.87,1.47,1.85c0,0.42-0.05,2.93,0.41,3.23v0.19h-2.1c-0.23-0.65-0.19-1.91-0.2-2.59c-0.01-0.63,0-1.48-0.65-1.68    c-0.52-0.15-1.08-0.14-1.62-0.14H141.91z M141.91,75.2h1.5c0.63-0.04,1.12-0.45,1.12-1.47c0-1.14-0.48-1.33-1.2-1.35h-1.42V75.2z"></path>
		<path class="st0" d="M148.37,81.1V70.88h1.91V81.1H148.37z"></path>
		<path class="st0" d="M156.71,70.88h1.91V81.1h-1.99l-1.48-3.64c-0.5-1.21-0.91-2.45-1.36-4.06h-0.03c0.07,0.84,0.15,1.88,0.2,2.92    c0.05,1.02,0.1,2.04,0.1,2.86v1.92h-1.91V70.88h1.98l1.48,3.72c0.49,1.19,0.9,2.4,1.36,4.06h0.03c-0.07-0.93-0.14-1.92-0.19-2.9    c-0.05-0.98-0.1-1.96-0.1-2.87V70.88z"></path>
		<path class="st0" d="M160.29,75.17c0.08-2.6,0.29-4.54,3.34-4.54c1.63,0.01,2.77,0.44,3.2,2.21c0.1,0.41,0.08,0.83,0.1,1.24h-1.91    c-0.03-1.04-0.1-1.85-1.39-1.91c-1.5,0-1.38,1.78-1.38,2.57v2.83c0,0.84,0.07,2.22,1.38,2.22c1.09,0,1.44-1.16,1.4-2.7h-1.32v-1.5    h3.17v5.49h-1.43v-1.17h-0.03c-0.38,1.06-1.1,1.36-1.8,1.42c-3.13,0-3.34-1.99-3.34-4.71V75.17z"></path>
	</g>
</g>
</svg>
